<svg width="13" height="14" viewBox="0 0 13 14" fill="none" xmlns="http://www.w3.org/2000/svg">
<path d="M10.883 5.31201C10.883 5.31201 10.521 9.80201 10.311 11.6933C10.211 12.5967 9.65303 13.126 8.73903 13.1427C6.9997 13.174 5.25836 13.176 3.5197 13.1393C2.64036 13.1213 2.0917 12.5853 1.9937 11.698C1.78236 9.79001 1.42236 5.31201 1.42236 5.31201" stroke="#192252" stroke-linecap="round" stroke-linejoin="round"/>
<path d="M11.8053 3.15975H0.5" stroke="#192252" stroke-linecap="round" stroke-linejoin="round"/>
<path d="M9.62689 3.15974C9.10356 3.15974 8.65289 2.78974 8.55022 2.27707L8.38822 1.46641C8.28822 1.09241 7.94956 0.83374 7.56356 0.83374H4.74156C4.35556 0.83374 4.01689 1.09241 3.91689 1.46641L3.75489 2.27707C3.65222 2.78974 3.20156 3.15974 2.67822 3.15974" stroke="#192252" stroke-linecap="round" stroke-linejoin="round"/>
</svg>
